# Blender 3.5.0
# www.blender.org
mtllib brick_collision.mtl
o Cube.001
v -2.000000 -1.000000 -0.500000
v -2.000000 -1.000000 0.500000
v -2.000000 1.000000 -0.500000
v -2.000000 1.000000 0.500000
v 2.000000 -1.000000 -0.500000
v 2.000000 -1.000000 0.500000
v 2.000000 1.000000 -0.500000
v 2.000000 1.000000 0.500000
vn -1.0000 -0.0000 -0.0000
vn -0.0000 1.0000 -0.0000
vn 1.0000 -0.0000 -0.0000
vn -0.0000 -1.0000 -0.0000
vn -0.0000 -0.0000 -1.0000
vn -0.0000 -0.0000 1.0000
vt 0.498675 0.998071
vt 1.497372 -0.000173
vt 0.000000 -0.000012
vt 0.000085 0.998071
vt 0.998782 -0.000173
vt -0.000003 2.397279
vt 0.498675 0.000173
vt 1.497448 2.397116
vt 0.997181 -0.000012
vt 0.000085 0.000173
vt 0.998858 2.397116
vt 0.997178 2.397279
vt 0.498683 0.000170
vt 1.497372 2.397116
vt 0.000000 2.397278
vt 0.000093 0.000170
vt 0.998782 2.397116
vt -0.000003 -0.000011
vt 1.497448 -0.000173
vt 0.498683 0.998069
vt 0.997181 2.397278
vt 0.998858 -0.000173
vt 0.000093 0.998069
vt 0.997178 -0.000011
s 0
usemtl Material
f 1/1/1 2/4/1 4/10/1 3/7/1
f 3/8/2 4/11/2 8/22/2 7/19/2
f 7/20/3 8/23/3 6/16/3 5/13/3
f 5/14/4 6/17/4 2/5/4 1/2/4
f 3/9/5 7/21/5 5/15/5 1/3/5
f 8/24/6 4/12/6 2/6/6 6/18/6
