# Blender 3.5.0
# www.blender.org
mtllib tetrahedron.mtl
o Cone
v 0.000000 1.000000 -0.850000
v 0.866025 -0.500000 -0.850000
v -0.866025 -0.500000 -0.850000
v 0.000000 0.000000 0.850000
vn 0.8308 0.4797 0.2822
vn -0.0000 -0.0000 -1.0000
vn -0.0000 -0.9594 0.2822
vn -0.8308 0.4797 0.2822
vt 0.970458 0.025883
vt 0.989076 0.084685
vt 1.003085 0.983418
vt 0.197541 0.403628
vt 0.989076 0.944972
vt 0.037943 0.968021
vt 0.244047 0.514828
vt 0.898229 0.968021
vt 0.230167 0.605673
vt 0.970458 1.005502
vt 0.468086 0.087891
vt 1.003085 0.003799
s 0
f 1/1/1 4/10/1 2/4/1
f 1/2/2 2/5/2 3/7/2
f 2/6/3 4/11/3 3/8/3
f 3/9/4 4/12/4 1/3/4
