# Blender 3.3.1
# www.blender.org
o Text
v 2.867032 -0.302013 2.007518
v 2.593436 -0.628013 1.815943
v 2.593436 -0.648013 1.815943
v 2.721223 -0.648013 1.905421
v 2.721223 -1.122014 1.905421
v 2.722895 -1.161593 1.906591
v 2.727905 -1.199152 1.910100
v 2.736250 -1.234420 1.915943
v 2.747922 -1.267125 1.924115
v 2.762916 -1.296996 1.934614
v 2.781226 -1.323764 1.947435
v 2.802847 -1.347156 1.962575
v 2.827774 -1.366902 1.980028
v 2.855999 -1.382732 1.999792
v 2.887518 -1.394375 2.021862
v 2.922326 -1.401559 2.046235
v 2.960416 -1.404014 2.072905
v 2.972908 -1.403482 2.081652
v 2.986492 -1.401930 2.091164
v 3.000964 -1.399420 2.101297
v 3.016118 -1.396013 2.111909
v 3.031750 -1.391774 2.122854
v 3.047655 -1.386764 2.133991
v 3.063629 -1.381045 2.145176
v 3.079466 -1.374680 2.156265
v 3.094961 -1.367732 2.167115
v 3.109911 -1.360263 2.177583
v 3.124109 -1.352336 2.187525
v 3.137352 -1.344013 2.196798
v 3.137352 -1.178014 2.196798
v 3.122708 -1.188555 2.186544
v 3.108257 -1.198180 2.176425
v 3.093988 -1.206888 2.166434
v 3.079890 -1.214680 2.156562
v 3.065951 -1.221555 2.146802
v 3.052161 -1.227514 2.137146
v 3.038506 -1.232555 2.127585
v 3.024977 -1.236680 2.118111
v 3.011561 -1.239888 2.108718
v 2.998248 -1.242180 2.099396
v 2.985026 -1.243555 2.090138
v 2.971884 -1.244014 2.080935
v 2.960873 -1.243362 2.073225
v 2.949327 -1.241301 2.065141
v 2.937531 -1.237670 2.056881
v 2.925769 -1.232310 2.048645
v 2.914325 -1.225061 2.040632
v 2.903485 -1.215763 2.033042
v 2.893532 -1.204258 2.026073
v 2.884750 -1.190384 2.019924
v 2.877425 -1.173982 2.014795
v 2.871841 -1.154893 2.010885
v 2.868282 -1.132957 2.008393
v 2.867032 -1.108014 2.007518
v 2.867032 -0.648013 2.007518
v 3.099672 -0.648013 2.170413
v 3.099672 -0.488013 2.170413
v 2.867032 -0.488013 2.007518
v 2.572138 -0.488013 1.801030
v 2.385371 -0.488013 1.670255
v 2.175668 -0.796013 1.523419
v 1.957773 -0.488013 1.370848
v 1.774283 -0.488013 1.242367
v 2.083923 -0.930013 1.459179
v 1.774283 -1.386014 1.242367
v 1.957773 -1.386014 1.370848
v 2.175668 -1.064013 1.523419
v 2.406669 -1.386014 1.685168
v 2.593436 -1.386014 1.815943
v 2.269051 -0.930013 1.588807
v 1.707113 -1.126014 1.195333
v 1.685845 -1.142423 1.180442
v 1.664623 -1.157625 1.165582
v 1.643424 -1.171576 1.150738
v 1.622224 -1.184236 1.135894
v 1.601002 -1.195562 1.121034
v 1.579735 -1.205513 1.106142
v 1.558399 -1.214048 1.091203
v 1.536972 -1.221125 1.076199
v 1.515431 -1.226701 1.061116
v 1.493754 -1.230736 1.045938
v 1.471918 -1.233187 1.030648
v 1.449899 -1.234014 1.015230
v 1.415872 -1.232100 0.991404
v 1.384246 -1.226375 0.969259
v 1.355031 -1.216857 0.948803
v 1.328240 -1.203569 0.930044
v 1.303884 -1.186531 0.912989
v 1.281973 -1.165763 0.897647
v 1.262520 -1.141288 0.884026
v 1.245536 -1.113125 0.872134
v 1.231032 -1.081295 0.861978
v 1.219020 -1.045819 0.853567
v 1.209510 -1.006718 0.846908
v 1.202515 -0.964013 0.842010
v 1.720219 -0.964013 1.204511
v 1.717657 -0.884551 1.202716
v 1.710094 -0.812143 1.197420
v 1.697718 -0.746763 1.188755
v 1.680718 -0.688384 1.176851
v 1.659281 -0.636976 1.161841
v 1.633594 -0.592513 1.143855
v 1.603846 -0.554967 1.123025
v 1.570223 -0.524310 1.099482
v 1.532915 -0.500513 1.073359
v 1.492108 -0.483550 1.044785
v 1.447990 -0.473393 1.013894
v 1.400750 -0.470013 0.980816
v 1.351305 -0.473791 0.946194
v 1.304727 -0.484902 0.913580
v 1.261289 -0.503013 0.883164
v 1.221265 -0.527791 0.855139
v 1.184926 -0.558902 0.829694
v 1.152547 -0.596013 0.807022
v 1.124400 -0.638791 0.787313
v 1.100758 -0.686902 0.770759
v 1.081895 -0.740014 0.757551
v 1.068083 -0.797791 0.747880
v 1.059596 -0.859902 0.741937
v 1.056706 -0.926013 0.739914
v 1.059353 -0.987516 0.741767
v 1.067234 -1.047532 0.747285
v 1.080257 -1.105326 0.756404
v 1.098331 -1.160162 0.769060
v 1.121366 -1.211303 0.785189
v 1.149270 -1.258013 0.804728
v 1.181953 -1.299557 0.827612
v 1.219323 -1.335199 0.853779
v 1.261289 -1.364201 0.883164
v 1.307761 -1.385828 0.915704
v 1.358647 -1.399344 0.951335
v 1.413857 -1.404014 0.989993
v 1.444093 -1.403303 1.011165
v 1.472669 -1.401162 1.031174
v 1.499765 -1.397576 1.050147
v 1.525565 -1.392532 1.068212
v 1.550249 -1.386016 1.085496
v 1.574001 -1.378013 1.102127
v 1.597001 -1.368511 1.118232
v 1.619433 -1.357495 1.133939
v 1.641478 -1.344951 1.149376
v 1.663319 -1.330865 1.164668
v 1.685136 -1.315224 1.179945
v 1.707113 -1.298013 1.195333
v 1.205792 -0.846013 0.844305
v 1.211695 -0.811816 0.848438
v 1.219566 -0.780263 0.853949
v 1.229394 -0.751420 0.860831
v 1.241167 -0.725347 0.869075
v 1.254875 -0.702107 0.878673
v 1.270505 -0.681763 0.889617
v 1.288046 -0.664378 0.901900
v 1.307488 -0.650013 0.915513
v 1.328818 -0.638732 0.930449
v 1.352026 -0.630597 0.946699
v 1.377099 -0.625670 0.964255
v 1.404027 -0.624013 0.983110
v 1.428999 -0.625784 1.000596
v 1.452266 -0.631014 1.016887
v 1.473757 -0.639576 1.031936
v 1.493405 -0.651347 1.045694
v 1.511142 -0.666201 1.058113
v 1.526899 -0.684014 1.069147
v 1.540609 -0.704659 1.078746
v 1.552202 -0.728014 1.086864
v 1.561611 -0.753951 1.093452
v 1.568767 -0.782347 1.098463
v 1.573603 -0.813076 1.101848
v 1.576049 -0.846013 1.103561
v 0.961685 -0.022013 0.673379
v 0.027851 -0.022013 0.019502
v 0.027851 -0.198013 0.019502
v 0.414491 -0.198013 0.290230
v 0.414491 -1.386014 0.290230
v 0.575045 -1.386014 0.402651
v 0.575045 -0.198013 0.402651
v 0.961685 -0.198013 0.673379
vn -0.5736 -0.0000 0.8192
vn -0.0000 -0.0000 1.0000
vn -0.5736 -0.0000 0.8191
vn -0.5736 -0.0001 0.8191
vn -0.5736 0.0001 0.8192
vn -0.5735 -0.0002 0.8192
vn -0.5738 0.0005 0.8190
vn -0.5735 -0.0005 0.8192
vn -0.5735 -0.0004 0.8192
vn -0.5737 -0.0000 0.8191
vt 0.498573 0.924641
vt 0.237785 0.670099
vt 0.237785 0.654483
vt 0.359590 0.654483
vt 0.359590 0.284383
vt 0.361183 0.253479
vt 0.365959 0.224153
vt 0.373913 0.196616
vt 0.385038 0.171080
vt 0.399330 0.147756
vt 0.416784 0.126856
vt 0.437393 0.108592
vt 0.461152 0.093173
vt 0.488056 0.080813
vt 0.518100 0.071723
vt 0.551277 0.066114
vt 0.587584 0.064197
vt 0.599491 0.064612
vt 0.612439 0.065824
vt 0.626234 0.067784
vt 0.640679 0.070443
vt 0.655579 0.073754
vt 0.670739 0.077666
vt 0.685965 0.082131
vt 0.701060 0.087101
vt 0.715831 0.092525
vt 0.730080 0.098357
vt 0.743614 0.104547
vt 0.756237 0.111045
vt 0.756237 0.240658
vt 0.742279 0.232427
vt 0.728504 0.224912
vt 0.714904 0.218113
vt 0.701465 0.212029
vt 0.688179 0.206661
vt 0.675034 0.202009
vt 0.662018 0.198072
vt 0.649123 0.194851
vt 0.636335 0.192346
vt 0.623646 0.190557
vt 0.611042 0.189483
vt 0.598516 0.189125
vt 0.588020 0.189634
vt 0.577015 0.191244
vt 0.565771 0.194079
vt 0.554560 0.198264
vt 0.543652 0.203923
vt 0.533318 0.211183
vt 0.523831 0.220167
vt 0.515461 0.230999
vt 0.508479 0.243806
vt 0.503156 0.258711
vt 0.499764 0.275839
vt 0.498573 0.295314
vt 0.498573 0.654483
vt 0.720320 0.654483
vt 0.720320 0.779411
vt 0.498573 0.779411
vt 0.954246 0.865676
vt 0.748189 0.865676
vt 0.516827 0.587319
vt 0.276427 0.865676
vt 0.073985 0.865676
vt 0.415606 0.466215
vt 0.073985 0.054101
vt 0.276427 0.054101
vt 0.516827 0.345111
vt 0.771687 0.054101
vt 0.977743 0.054101
vt 0.619855 0.466215
vt 0.867805 0.326030
vt 0.842602 0.310101
vt 0.817453 0.295345
vt 0.792331 0.281802
vt 0.767210 0.269513
vt 0.742061 0.258518
vt 0.716858 0.248858
vt 0.691575 0.240573
vt 0.666184 0.233704
vt 0.640658 0.228291
vt 0.614969 0.224375
vt 0.589093 0.221995
vt 0.563000 0.221193
vt 0.522678 0.223050
vt 0.485200 0.228608
vt 0.450580 0.237847
vt 0.418831 0.250746
vt 0.389968 0.267285
vt 0.364004 0.287444
vt 0.340952 0.311203
vt 0.320825 0.338541
vt 0.303638 0.369439
vt 0.289403 0.403876
vt 0.278134 0.441832
vt 0.269845 0.483286
vt 0.883336 0.483286
vt 0.880299 0.560421
vt 0.871337 0.630708
vt 0.856672 0.694173
vt 0.836526 0.750843
vt 0.811122 0.800745
vt 0.780683 0.843906
vt 0.745430 0.880353
vt 0.705587 0.910113
vt 0.661376 0.933212
vt 0.613019 0.949678
vt 0.560738 0.959538
vt 0.504757 0.962818
vt 0.446164 0.959151
vt 0.390968 0.948366
vt 0.339493 0.930785
vt 0.292063 0.906733
vt 0.249001 0.876533
vt 0.210631 0.840509
vt 0.177276 0.798984
vt 0.149260 0.752281
vt 0.126907 0.700726
vt 0.110540 0.644640
vt 0.100482 0.584348
vt 0.097058 0.520173
vt 0.100194 0.460472
vt 0.109533 0.402213
vt 0.124966 0.346112
vt 0.146384 0.292882
vt 0.173681 0.243238
vt 0.206748 0.197896
vt 0.245478 0.157568
vt 0.289762 0.122971
vt 0.339493 0.094818
vt 0.394564 0.073824
vt 0.454865 0.060704
vt 0.520289 0.056171
vt 0.556120 0.056861
vt 0.589983 0.058940
vt 0.622092 0.062420
vt 0.652665 0.067317
vt 0.681917 0.073642
vt 0.710063 0.081410
vt 0.737320 0.090634
vt 0.763902 0.101328
vt 0.790026 0.113504
vt 0.815907 0.127177
vt 0.841762 0.142361
vt 0.867805 0.159067
vt 0.273728 0.597830
vt 0.280722 0.631026
vt 0.290050 0.661654
vt 0.301696 0.689654
vt 0.315648 0.714963
vt 0.331892 0.737522
vt 0.350414 0.757270
vt 0.371201 0.774146
vt 0.394240 0.788090
vt 0.419517 0.799041
vt 0.447018 0.806938
vt 0.476730 0.811721
vt 0.508641 0.813329
vt 0.538233 0.811609
vt 0.565804 0.806534
vt 0.591272 0.798222
vt 0.614556 0.786796
vt 0.635575 0.772376
vt 0.654248 0.755085
vt 0.670493 0.735044
vt 0.684232 0.712374
vt 0.695381 0.687196
vt 0.703862 0.659632
vt 0.709592 0.629803
vt 0.712490 0.597830
vt 0.870501 0.964006
vt 0.099348 0.964006
vt 0.099348 0.844951
vt 0.418632 0.844951
vt 0.418632 0.041327
vt 0.551217 0.041327
vt 0.551217 0.844951
vt 0.870501 0.844951
s 0
f 2/2/1 58/58/1 1/1/1
f 2/2/1 57/57/1 58/58/1
f 2/2/1 56/56/1 57/57/1
f 3/3/1 56/56/1 2/2/1
f 4/4/2 56/56/2 3/3/2
f 5/5/1 55/55/1 4/4/1
f 55/55/2 56/56/2 4/4/2
f 5/5/1 54/54/1 55/55/1
f 5/5/1 53/53/1 54/54/1
f 6/6/1 53/53/1 5/5/1
f 6/6/1 52/52/1 53/53/1
f 6/6/1 51/51/1 52/52/1
f 7/7/1 51/51/1 6/6/1
f 7/7/1 50/50/1 51/51/1
f 31/31/1 29/29/1 30/30/1
f 32/32/1 29/29/1 31/31/1
f 7/7/1 49/49/1 50/50/1
f 33/33/3 29/29/3 32/32/3
f 8/8/1 49/49/1 7/7/1
f 8/8/1 48/48/1 49/49/1
f 34/34/1 29/29/1 33/33/1
f 35/35/1 29/29/1 34/34/1
f 8/8/3 47/47/3 48/48/3
f 36/36/3 29/29/3 35/35/3
f 8/8/1 46/46/1 47/47/1
f 37/37/1 29/29/1 36/36/1
f 8/8/3 45/45/3 46/46/3
f 38/38/3 29/29/3 37/37/3
f 9/9/1 45/45/1 8/8/1
f 39/39/1 29/29/1 38/38/1
f 9/9/3 44/44/3 45/45/3
f 40/40/1 29/29/1 39/39/1
f 9/9/1 43/43/1 44/44/1
f 41/41/1 29/29/1 40/40/1
f 9/9/4 42/42/4 43/43/4
f 42/42/3 29/29/3 41/41/3
f 9/9/1 29/29/1 42/42/1
f 10/10/1 29/29/1 9/9/1
f 11/11/1 29/29/1 10/10/1
f 12/12/3 29/29/3 11/11/3
f 12/12/1 28/28/1 29/29/1
f 13/13/3 28/28/3 12/12/3
f 13/13/1 27/27/1 28/28/1
f 13/13/1 26/26/1 27/27/1
f 14/14/3 26/26/3 13/13/3
f 14/14/1 25/25/1 26/26/1
f 14/14/1 24/24/1 25/25/1
f 14/14/1 23/23/1 24/24/1
f 15/15/1 23/23/1 14/14/1
f 15/15/4 22/22/4 23/23/4
f 15/15/5 21/21/5 22/22/5
f 16/16/1 21/21/1 15/15/1
f 16/16/5 20/20/5 21/21/5
f 16/16/3 19/19/3 20/20/3
f 17/17/6 19/19/6 16/16/6
f 17/17/7 18/18/7 19/19/7
f 64/64/1 62/62/1 63/63/1
f 64/64/1 61/61/1 62/62/1
f 61/61/1 59/59/1 60/60/1
f 61/61/1 70/70/1 59/59/1
f 64/64/1 70/70/1 61/61/1
f 65/65/1 70/70/1 64/64/1
f 65/65/1 67/67/1 70/70/1
f 67/67/1 69/69/1 70/70/1
f 65/65/1 66/66/1 67/67/1
f 68/68/1 69/69/1 67/67/1
f 109/109/3 107/107/3 108/108/3
f 109/109/1 106/106/1 107/107/1
f 110/110/3 106/106/3 109/109/3
f 110/110/1 105/105/1 106/106/1
f 111/111/1 105/105/1 110/110/1
f 111/111/1 104/104/1 105/105/1
f 112/112/1 104/104/1 111/111/1
f 112/112/1 103/103/1 104/104/1
f 113/113/1 103/103/1 112/112/1
f 113/113/1 102/102/1 103/103/1
f 114/114/1 102/102/1 113/113/1
f 114/114/1 101/101/1 102/102/1
f 115/115/1 157/157/1 114/114/1
f 157/157/1 101/101/1 114/114/1
f 115/115/8 156/156/8 157/157/8
f 158/158/9 101/101/9 157/157/9
f 115/115/5 155/155/5 156/156/5
f 159/159/3 101/101/3 158/158/3
f 115/115/1 154/154/1 155/155/1
f 160/160/1 101/101/1 159/159/1
f 160/160/1 100/100/1 101/101/1
f 115/115/1 153/153/1 154/154/1
f 116/116/1 153/153/1 115/115/1
f 161/161/1 100/100/1 160/160/1
f 116/116/1 152/152/1 153/153/1
f 162/162/1 100/100/1 161/161/1
f 116/116/3 151/151/3 152/152/3
f 163/163/1 100/100/1 162/162/1
f 116/116/1 150/150/1 151/151/1
f 164/164/1 100/100/1 163/163/1
f 117/117/1 150/150/1 116/116/1
f 164/164/1 99/99/1 100/100/1
f 117/117/1 149/149/1 150/150/1
f 165/165/1 99/99/1 164/164/1
f 117/117/1 148/148/1 149/149/1
f 166/166/1 99/99/1 165/165/1
f 118/118/1 148/148/1 117/117/1
f 166/166/1 98/98/1 99/99/1
f 118/118/1 147/147/1 148/148/1
f 167/167/1 98/98/1 166/166/1
f 118/118/1 146/146/1 147/147/1
f 168/168/1 98/98/1 167/167/1
f 119/119/1 146/146/1 118/118/1
f 119/119/1 145/145/1 146/146/1
f 168/168/1 97/97/1 98/98/1
f 169/169/1 97/97/1 168/168/1
f 119/119/1 169/169/1 145/145/1
f 119/119/1 97/97/1 169/169/1
f 120/120/1 97/97/1 119/119/1
f 120/120/1 96/96/1 97/97/1
f 121/121/1 95/95/1 120/120/1
f 95/95/1 96/96/1 120/120/1
f 121/121/1 94/94/1 95/95/1
f 122/122/1 94/94/1 121/121/1
f 122/122/1 93/93/1 94/94/1
f 122/122/1 92/92/1 93/93/1
f 123/123/1 92/92/1 122/122/1
f 123/123/1 91/91/1 92/92/1
f 124/124/1 91/91/1 123/123/1
f 124/124/1 90/90/1 91/91/1
f 72/72/1 144/144/1 71/71/1
f 124/124/1 89/89/1 90/90/1
f 73/73/1 144/144/1 72/72/1
f 74/74/1 144/144/1 73/73/1
f 125/125/1 89/89/1 124/124/1
f 125/125/1 88/88/1 89/89/1
f 75/75/1 144/144/1 74/74/1
f 76/76/1 144/144/1 75/75/1
f 125/125/1 87/87/1 88/88/1
f 77/77/1 144/144/1 76/76/1
f 125/125/1 86/86/1 87/87/1
f 78/78/1 144/144/1 77/77/1
f 126/126/1 86/86/1 125/125/1
f 79/79/1 144/144/1 78/78/1
f 126/126/1 85/85/1 86/86/1
f 80/80/1 144/144/1 79/79/1
f 126/126/1 84/84/1 85/85/1
f 81/81/1 144/144/1 80/80/1
f 82/82/3 144/144/3 81/81/3
f 126/126/1 83/83/1 84/84/1
f 83/83/1 144/144/1 82/82/1
f 126/126/1 144/144/1 83/83/1
f 127/127/1 144/144/1 126/126/1
f 127/127/3 143/143/3 144/144/3
f 128/128/1 143/143/1 127/127/1
f 128/128/1 142/142/1 143/143/1
f 128/128/3 141/141/3 142/142/3
f 129/129/1 141/141/1 128/128/1
f 129/129/3 140/140/3 141/141/3
f 129/129/1 139/139/1 140/140/1
f 130/130/3 139/139/3 129/129/3
f 130/130/1 138/138/1 139/139/1
f 130/130/1 137/137/1 138/138/1
f 131/131/1 137/137/1 130/130/1
f 131/131/1 136/136/1 137/137/1
f 131/131/1 135/135/1 136/136/1
f 131/131/1 134/134/1 135/135/1
f 132/132/1 134/134/1 131/131/1
f 132/132/10 133/133/10 134/134/10
f 172/172/1 170/170/1 171/171/1
f 172/172/1 177/177/1 170/170/1
f 173/173/2 177/177/2 172/172/2
f 174/174/1 176/176/1 173/173/1
f 176/176/2 177/177/2 173/173/2
f 174/174/1 175/175/1 176/176/1
